<svg width="16" height="18" viewBox="0 0 16 18" fill="none" xmlns="http://www.w3.org/2000/svg">
<path d="M12.375 5.625V4.5C12.375 2.03906 10.3359 0 7.875 0C5.37891 0 3.375 2.03906 3.375 4.5V5.625H0V15.1875C0 16.7695 1.23047 18 2.8125 18H12.9375C14.4844 18 15.75 16.7695 15.75 15.1875V5.625H12.375ZM5.625 4.5C5.625 3.26953 6.60938 2.25 7.875 2.25C9.10547 2.25 10.125 3.26953 10.125 4.5V5.625H5.625V4.5ZM11.25 8.71875C10.7578 8.71875 10.4062 8.36719 10.4062 7.875C10.4062 7.41797 10.7578 7.03125 11.25 7.03125C11.707 7.03125 12.0938 7.41797 12.0938 7.875C12.0938 8.36719 11.707 8.71875 11.25 8.71875ZM4.5 8.71875C4.00781 8.71875 3.65625 8.36719 3.65625 7.875C3.65625 7.41797 4.00781 7.03125 4.5 7.03125C4.95703 7.03125 5.34375 7.41797 5.34375 7.875C5.34375 8.36719 4.95703 8.71875 4.5 8.71875Z" fill="#757575"/>
</svg>
