<svg width="14" height="19" viewBox="0 0 14 19" fill="none" xmlns="http://www.w3.org/2000/svg">
<path d="M6.04688 17.6484C6.36328 18.1406 7.10156 18.1406 7.41797 17.6484C12.5508 10.2656 13.5 9.49219 13.5 6.75C13.5 3.02344 10.4766 0 6.75 0C2.98828 0 0 3.02344 0 6.75C0 9.49219 0.914062 10.2656 6.04688 17.6484ZM6.75 9.5625C5.16797 9.5625 3.9375 8.33203 3.9375 6.75C3.9375 5.20312 5.16797 3.9375 6.75 3.9375C8.29688 3.9375 9.5625 5.20312 9.5625 6.75C9.5625 8.33203 8.29688 9.5625 6.75 9.5625Z" fill="#FFB30E"/>
</svg>
