<svg width="23" height="14" viewBox="0 0 23 14" fill="none" xmlns="http://www.w3.org/2000/svg">
<path d="M18.0703 4.5C17.5781 4.5 17.0508 4.60547 16.5938 4.74609L15.4336 2.8125H18.3516C18.8086 2.8125 19.1953 2.46094 19.1953 1.96875V0.84375C19.1953 0.386719 18.8086 0 18.3516 0H16.7344C16.4883 0 16.2773 0.105469 16.1016 0.28125L14.8008 1.75781L13.9922 0.421875C13.8516 0.175781 13.5703 0 13.2891 0H10.4766C10.1602 0 9.91406 0.28125 9.91406 0.5625V1.125C9.91406 1.44141 10.1602 1.6875 10.4766 1.6875H12.7969L13.4648 2.8125H8.05078C7.45312 2.00391 6.50391 1.40625 4.57031 1.40625H2.60156C2.14453 1.40625 1.72266 1.79297 1.75781 2.28516C1.75781 2.74219 2.10938 3.09375 2.60156 3.09375H4.57031C5.41406 3.09375 5.90625 3.48047 6.22266 3.97266L5.83594 4.71094C5.37891 4.57031 4.88672 4.5 4.39453 4.53516C2.00391 4.60547 0.105469 6.53906 0.0703125 8.89453C0 11.4609 2.03906 13.5 4.57031 13.5C6.64453 13.5 8.40234 12.0938 8.92969 10.125H11.8828C12.3398 10.125 12.7266 9.73828 12.7266 9.24609C12.6562 7.59375 13.3242 5.97656 14.6953 4.85156L15.1172 5.58984C14.168 6.43359 13.5352 7.66406 13.5703 9.03516C13.5703 11.4961 15.5742 13.5 18 13.5C20.5312 13.5352 22.5703 11.4961 22.5703 8.96484C22.5352 6.53906 20.5312 4.53516 18.0703 4.5ZM4.57031 11.8125C2.98828 11.8125 1.75781 10.582 1.75781 9C1.75781 7.45312 2.98828 6.1875 4.57031 6.1875C4.71094 6.1875 4.85156 6.22266 4.99219 6.22266L3.55078 8.89453C3.23438 9.45703 3.62109 10.125 4.28906 10.125H7.13672C6.67969 11.1445 5.69531 11.8125 4.57031 11.8125ZM20.8477 9.17578C20.7773 10.582 19.6172 11.7422 18.2109 11.8125C16.5938 11.918 15.2578 10.6172 15.2578 9C15.2578 8.26172 15.5391 7.59375 16.0312 7.06641L17.7539 9.98438C17.9297 10.2305 18.2461 10.3359 18.5273 10.1602L19.0195 9.87891C19.2656 9.73828 19.3711 9.38672 19.1953 9.10547L17.5078 6.25781C17.6836 6.22266 17.8594 6.22266 18.0703 6.22266C19.6523 6.1875 20.9531 7.55859 20.8477 9.17578Z" fill="#F17228"/>
</svg>
