<svg width="16" height="18" viewBox="0 0 16 18" fill="none" xmlns="http://www.w3.org/2000/svg">
<path d="M7.875 9C10.3359 9 12.375 6.99609 12.375 4.5C12.375 2.03906 10.3359 0 7.875 0C5.37891 0 3.375 2.03906 3.375 4.5C3.375 6.99609 5.37891 9 7.875 9ZM11.0039 10.125H10.4062C9.63281 10.5117 8.78906 10.6875 7.875 10.6875C6.96094 10.6875 6.08203 10.5117 5.30859 10.125H4.71094C2.10938 10.125 0 12.2695 0 14.8711V16.3125C0 17.2617 0.738281 18 1.6875 18H14.0625C14.9766 18 15.75 17.2617 15.75 16.3125V14.8711C15.75 12.2695 13.6055 10.125 11.0039 10.125Z" fill="url(#paint0_linear_401_1279)"/>
<defs>
<linearGradient id="paint0_linear_401_1279" x1="-7.15325" y1="-22.6" x2="23.7784" y2="-21.2348" gradientUnits="userSpaceOnUse">
<stop stop-color="#FFB800"/>
<stop offset="1" stop-color="#FF8A00"/>
</linearGradient>
</defs>
</svg>
