<svg width="19" height="19" viewBox="0 0 19 19" fill="none" xmlns="http://www.w3.org/2000/svg">
<path d="M17.7539 15.5742L14.2383 12.0586C14.0625 11.918 13.8516 11.8125 13.6406 11.8125H13.0781C14.0273 10.582 14.625 9.03516 14.625 7.3125C14.625 3.30469 11.3203 0 7.3125 0C3.26953 0 0 3.30469 0 7.3125C0 11.3555 3.26953 14.625 7.3125 14.625C9 14.625 10.5469 14.0625 11.8125 13.0781V13.6758C11.8125 13.8867 11.8828 14.0977 12.0586 14.2734L15.5391 17.7539C15.8906 18.1055 16.418 18.1055 16.7344 17.7539L17.7188 16.7695C18.0703 16.4531 18.0703 15.9258 17.7539 15.5742ZM7.3125 11.8125C4.81641 11.8125 2.8125 9.80859 2.8125 7.3125C2.8125 4.85156 4.81641 2.8125 7.3125 2.8125C9.77344 2.8125 11.8125 4.85156 11.8125 7.3125C11.8125 9.80859 9.77344 11.8125 7.3125 11.8125Z" fill="#FFB30E"/>
</svg>
